<?xml version="1.0" encoding="UTF-8" standalone="no"?>
<!-- Created with Inkscape (http://www.inkscape.org/) -->

<svg
   width="69.483612mm"
   height="69.483612mm"
   viewBox="0 0 69.483612 69.483612"
   version="1.1"
   id="svg1"
   xml:space="preserve"
   inkscape:version="1.3.2 (091e20ef0f, 2023-11-25, custom)"
   sodipodi:docname="logo.svg"
   inkscape:export-filename="./logo_round.png"
   inkscape:export-xdpi="400"
   inkscape:export-ydpi="400"
   xmlns:inkscape="http://www.inkscape.org/namespaces/inkscape"
   xmlns:sodipodi="http://sodipodi.sourceforge.net/DTD/sodipodi-0.dtd"
   xmlns="http://www.w3.org/2000/svg"
   xmlns:svg="http://www.w3.org/2000/svg"><sodipodi:namedview
     id="namedview1"
     pagecolor="#ffffff"
     bordercolor="#eeeeee"
     borderopacity="0"
     inkscape:showpageshadow="0"
     inkscape:pageopacity="0"
     inkscape:pagecheckerboard="0"
     inkscape:deskcolor="#d1d1d1"
     inkscape:document-units="mm"
     inkscape:zoom="2.4126249"
     inkscape:cx="215.53288"
     inkscape:cy="140.7181"
     inkscape:window-width="1902"
     inkscape:window-height="1080"
     inkscape:window-x="0"
     inkscape:window-y="0"
     inkscape:window-maximized="1"
     inkscape:current-layer="g2" /><defs
     id="defs1"><inkscape:path-effect
       effect="fillet_chamfer"
       id="path-effect55"
       is_visible="true"
       lpeversion="1"
       nodesatellites_param="F,0,0,1,0,0,0,1 @ F,0,0,1,0,0,0,1 @ F,0,0,1,0,0,0,1 @ F,0,0,1,0,0,0,1 @ F,0,0,1,0,0,0,1 @ F,0,0,1,0,0,0,1 @ F,0,0,1,0,0,0,1 @ F,0,0,1,0,0,0,1 @ F,0,0,1,0,0,0,1 @ F,0,0,1,0,0,0,1 @ F,0,0,1,0,0,0,1 @ F,0,0,1,0,0,0,1 @ F,0,0,1,0,0,0,1 @ F,0,0,1,0,0,0,1"
       radius="0"
       unit="px"
       method="auto"
       mode="F"
       chamfer_steps="1"
       flexible="false"
       use_knot_distance="true"
       apply_no_radius="true"
       apply_with_radius="true"
       only_selected="false"
       hide_knots="false" /><filter
       style="color-interpolation-filters:sRGB"
       inkscape:label="Color Shift"
       id="filter136"
       x="0"
       y="0"
       width="1"
       height="1"><feColorMatrix
         type="hueRotate"
         values="346"
         result="color1"
         id="feColorMatrix135" /><feColorMatrix
         type="saturate"
         values="0.442691"
         result="color2"
         id="feColorMatrix136" /></filter><clipPath
       id="clipPath5820"
       clipPathUnits="userSpaceOnUse"><ellipse
         id="path5822"
         style="fill:none;stroke:#000000;stroke-width:0.07547;stroke-linecap:square;stroke-linejoin:round"
         transform="matrix(2.9758,2.8683,-2.6532,2.7526,-52.917,344.51)"
         cx="225.71428"
         cy="275.21933"
         rx="105.71429"
         ry="114.28571" /></clipPath><mask
       maskUnits="userSpaceOnUse"
       id="mask144"><path
         style="fill:#8087a2;fill-opacity:1;stroke-width:1.94962"
         d="M 182.213,390.40569 300.64694,508.07667 C 415.73196,496.05363 507.41425,391.20938 510.66692,282.09102 L 373.848,142.87978 l 2.61299,17.008 -46.50195,-46.50599 -20.39605,35.009 L 243.77398,82.601788 199.558,205.7458 160.47,166.31679 l 11.409,29.35 51.50999,51.281 -17.38196,61.26093 z"
         id="path145"
         sodipodi:nodetypes="cccccccccccccc" /></mask></defs><g
     inkscape:label="Layer 1"
     inkscape:groupmode="layer"
     id="layer1"
     transform="translate(-72.068321,-57.854996)"
     style="display:none"
     sodipodi:insensitive="true"><g
       inkscape:groupmode="layer"
       id="layer2"
       inkscape:label="bg"><circle
         style="fill:#939ab7;fill-opacity:1;stroke-width:0.264583"
         cx="106.81013"
         cy="92.596802"
         r="34.741806"
         id="circle143"
         clip-path="none" /><circle
         style="fill:#6d7582;fill-opacity:0.684249;stroke-width:1.94962"
         cx="256"
         cy="256"
         r="256"
         id="circle142"
         transform="matrix(0.13571018,0,0,0.13571018,72.06833,57.854993)"
         clip-path="none"
         mask="url(#mask144)" /></g><g
       id="g1"
       transform="matrix(0.13571018,0,0,0.13571018,72.068329,55.209159)"
       style="stroke-width:1.94962;filter:url(#filter136)"><a
         id="a55" /><g
         id="g4"
         style="stroke-width:1.94962">
	<path
   style="fill:#599b13;stroke-width:1.94962"
   d="m 201.054,245.253 v 0 c -12.243,8.233 -28.843,4.984 -37.076,-7.259 l -37.271,-55.422 v 0 c 12.243,-8.233 28.843,-4.984 37.076,7.259 z"
   id="path2" />
	<path
   style="fill:#599b13;stroke-width:1.94962"
   d="m 311.167,236.723 v 0 c -8.233,-12.243 -4.984,-28.843 7.259,-37.076 l 55.42,-37.271 v 0 c 8.233,12.243 4.984,28.843 -7.259,37.076 z"
   id="path3" />
	<path
   style="fill:#599b13;stroke-width:1.94962"
   d="m 305.335,237.992 v 0 c 3.312,-9.818 13.955,-15.095 23.773,-11.783 l 44.446,14.988 v 0 c -3.312,9.818 -13.955,15.095 -23.773,11.783 z"
   id="path4" />
</g><path
         style="fill:#79d720;stroke-width:1.94962"
         d="m 243.774,256 c -20.52,0 -41.041,0 -61.561,0 8.887,-50.916 8.887,-102.986 0,-153.902 20.52,0 41.041,0 61.561,0 -8.887,50.916 -8.887,102.986 0,153.902 z"
         id="path5" /><g
         id="g7"
         style="stroke-width:1.94962">
	<path
   style="fill:#66b31b;stroke-width:1.94962"
   d="m 243.774,102.098 c -10.29,0 -20.58,0 -30.87,0 V 256 c 10.29,0 20.58,0 30.87,0 -8.887,-50.916 -8.887,-102.986 0,-153.902 z"
   id="path6" />
	<path
   style="fill:#66b31b;stroke-width:1.94962"
   d="m 243.774,409.902 c -20.52,0 -41.041,0 -61.561,0 8.887,-50.916 8.887,-102.986 0,-153.902 20.52,0 41.041,0 61.561,0 -8.887,50.916 -8.887,102.986 0,153.902 z"
   id="path7" />
</g><path
         style="fill:#599b13;stroke-width:1.94962"
         d="m 243.774,256 c -10.29,0 -20.58,0 -30.87,0 v 153.902 c 10.29,0 20.58,0 30.87,0 -8.887,-50.916 -8.887,-102.986 0,-153.902 z"
         id="path8" /><path
         style="fill:#79d720;stroke-width:1.94962"
         d="m 329.959,271.389 c -18.468,0 -36.936,0 -55.405,0 7.997,-45.823 7.997,-92.688 0,-138.511 18.468,0 36.936,0 55.405,0 -7.999,45.826 -7.999,92.688 0,138.511 z"
         id="path9" /><g
         id="g11"
         style="stroke-width:1.94962">
	<path
   style="fill:#66b31b;stroke-width:1.94962"
   d="m 329.959,132.879 c -9.521,0 -19.041,0 -28.562,0 V 271.39 c 9.521,0 19.041,0 28.562,0 -7.999,-45.824 -7.999,-92.686 0,-138.511 z"
   id="path10" />
	<path
   style="fill:#66b31b;stroke-width:1.94962"
   d="m 329.959,409.902 c -18.468,0 -36.936,0 -55.405,0 7.997,-45.823 7.997,-92.688 0,-138.511 18.468,0 36.936,0 55.405,0 -7.999,45.823 -7.999,92.686 0,138.511 z"
   id="path11" />
</g><path
         style="fill:#599b13;stroke-width:1.94962"
         d="m 329.959,271.389 c -9.521,0 -19.041,0 -28.562,0 V 409.9 c 9.521,0 19.041,0 28.562,0 -7.999,-45.823 -7.999,-92.686 0,-138.511 z"
         id="path12" /><g
         id="g12"
         style="stroke-width:1.94962">
</g><g
         id="g13"
         style="stroke-width:1.94962">
</g><g
         id="g14"
         style="stroke-width:1.94962">
</g><g
         id="g15"
         style="stroke-width:1.94962">
</g><g
         id="g16"
         style="stroke-width:1.94962">
</g><g
         id="g17"
         style="stroke-width:1.94962">
</g><g
         id="g18"
         style="stroke-width:1.94962">
</g><g
         id="g19"
         style="stroke-width:1.94962">
</g><g
         id="g20"
         style="stroke-width:1.94962">
</g><g
         id="g21"
         style="stroke-width:1.94962">
</g><g
         id="g22"
         style="stroke-width:1.94962">
</g><g
         id="g23"
         style="stroke-width:1.94962">
</g><g
         id="g24"
         style="stroke-width:1.94962">
</g><g
         id="g25"
         style="stroke-width:1.94962">
</g><g
         id="g26"
         style="stroke-width:1.94962">
</g></g><g
       id="g141"
       style="fill:#f5a97f;fill-opacity:1"
       transform="translate(0,-2.6458334)"><path
         d="m 100.51156,119.24984 c -0.0331,-0.13796 -0.1313,-0.35447 -0.12881,-0.56965 0.01,-0.81129 0.0469,-1.62237 0.0851,-2.43299 0.0112,-0.23809 0.0974,-0.46053 0.38071,-0.47655 0.29882,-0.017 0.37657,0.21844 0.40178,0.44902 0.0864,0.79129 0.17199,1.58332 0.22465,2.37727 0.006,0.22506 -0.0453,0.44797 -0.14777,0.6484 -0.14772,0.30244 -0.53869,0.32355 -0.81571,0.005 z"
         fill="#000000"
         id="path2-5"
         style="fill:#f5a97f;fill-opacity:1;stroke:none;stroke-width:0.137807;stroke-opacity:1" /><path
         d="m 102.75861,114.07377 c 0.25221,-0.21838 0.63402,-0.16011 0.68176,0.11185 0.11693,0.68755 0.18962,1.38193 0.21759,2.07875 0.0114,0.25109 -0.2205,0.42618 -0.4961,0.42802 -0.12241,0.005 -0.24235,-0.0357 -0.33701,-0.11364 -0.0946,-0.0778 -0.15728,-0.18782 -0.17616,-0.30895 -0.0473,-0.23365 -0.0675,-0.47197 -0.0603,-0.71038 0.005,-0.35973 0.028,-0.71993 0.0631,-1.07784 0.0229,-0.13898 0.0588,-0.27547 0.1071,-0.40781 z"
         fill="#000000"
         id="path3-3"
         style="fill:#f5a97f;fill-opacity:1;stroke:none;stroke-width:0.137807;stroke-opacity:1" /><path
         d="m 98.843215,114.20744 c 0.04797,0.1468 0.08374,0.29731 0.106806,0.44991 0.04391,0.67027 0.07956,1.34102 0.106805,2.01217 -0.0011,0.11958 -0.02058,0.23825 -0.05845,0.35154 -0.06974,0.24402 -0.232106,0.39217 -0.49354,0.36461 -0.270075,-0.0284 -0.392928,-0.22199 -0.377745,-0.47287 0.04943,-0.82159 0.108305,-1.64287 0.184959,-2.46228 0.0099,-0.10718 0.127268,-0.23035 0.227803,-0.29317 0.0604,-0.0377 0.184828,0.027 0.303356,0.0501 z"
         fill="#000000"
         id="path4-5"
         style="fill:#f5a97f;fill-opacity:1;stroke:none;stroke-width:0.137807;stroke-opacity:1" /><path
         d="m 112.59926,119.24984 c -0.0331,-0.13796 -0.1313,-0.35447 -0.12881,-0.56965 0.01,-0.81129 0.0469,-1.62237 0.0851,-2.43299 0.0112,-0.23809 0.0974,-0.46053 0.38071,-0.47655 0.29882,-0.017 0.37657,0.21844 0.40178,0.44902 0.0864,0.79129 0.17199,1.58332 0.22465,2.37727 0.006,0.22506 -0.0453,0.44797 -0.14777,0.6484 -0.14772,0.30244 -0.53869,0.32355 -0.81571,0.005 z"
         fill="#000000"
         id="path139"
         style="fill:#f5a97f;fill-opacity:1;stroke:none;stroke-width:0.137807;stroke-opacity:1" /><path
         d="m 114.84631,114.07377 c 0.25221,-0.21838 0.63402,-0.16011 0.68176,0.11185 0.11693,0.68755 0.18962,1.38193 0.21759,2.07875 0.0114,0.25109 -0.2205,0.42618 -0.4961,0.42802 -0.12241,0.005 -0.24235,-0.0357 -0.33701,-0.11364 -0.0946,-0.0778 -0.15728,-0.18782 -0.17616,-0.30895 -0.0473,-0.23365 -0.0675,-0.47197 -0.0603,-0.71038 0.005,-0.35973 0.028,-0.71993 0.0631,-1.07784 0.0229,-0.13898 0.0588,-0.27547 0.1071,-0.40781 z"
         fill="#000000"
         id="path140"
         style="fill:#f5a97f;fill-opacity:1;stroke:none;stroke-width:0.137807;stroke-opacity:1" /><path
         d="m 110.93091,114.20744 c 0.048,0.1468 0.0837,0.29731 0.10681,0.44991 0.0439,0.67027 0.0796,1.34102 0.1068,2.01217 -0.001,0.11958 -0.0206,0.23825 -0.0584,0.35154 -0.0697,0.24402 -0.2321,0.39217 -0.49354,0.36461 -0.27007,-0.0284 -0.39293,-0.22199 -0.37774,-0.47287 0.0494,-0.82159 0.1083,-1.64287 0.18496,-2.46228 0.01,-0.10718 0.12726,-0.23035 0.2278,-0.29317 0.0604,-0.0377 0.18483,0.027 0.30336,0.0501 z"
         fill="#000000"
         id="path141"
         style="fill:#f5a97f;fill-opacity:1;stroke:none;stroke-width:0.137807;stroke-opacity:1" /></g></g><g
     inkscape:label="square"
     inkscape:groupmode="layer"
     id="g55"
     transform="translate(-72.068321,-57.854996)"><g
       inkscape:groupmode="layer"
       id="g2"
       inkscape:label="bg"><rect
         style="font-variation-settings:'wght' 585;fill:#31394b;stroke-width:0.499999;fill-opacity:1"
         id="rect55"
         width="69.483612"
         height="69.483612"
         x="72.068321"
         y="57.854996"
         clip-path="none" /><path
         style="fill:#000000;fill-opacity:0.37778816;stroke-width:0.264583"
         d="m 96.796489,110.83702 15.673911,16.50159 29.08153,0 0,-30.922545 -18.74862,-19.170831 0.35461,2.308158 -6.31079,-6.311336 -2.76795,4.751078 -8.92824,-8.928237 -6.000558,16.711896 -5.304639,-5.350918 1.548317,3.983093 6.99043,6.959354 -2.35891,8.313732 z"
         id="path55"
         sodipodi:nodetypes="ccccccccccccccc"
         clip-path="none" /></g><g
       id="g49"
       transform="matrix(0.13571018,0,0,0.13571018,72.068329,55.209159)"
       style="stroke-width:1.94962;filter:url(#filter136)"><a
         id="a2" /><g
         id="g27"
         style="stroke-width:1.94962">
	<path
   style="fill:#599b13;stroke-width:1.94962"
   d="m 201.054,245.253 v 0 c -12.243,8.233 -28.843,4.984 -37.076,-7.259 l -37.271,-55.422 v 0 c 12.243,-8.233 28.843,-4.984 37.076,7.259 z"
   id="path13" />
	<path
   style="fill:#599b13;stroke-width:1.94962"
   d="m 311.167,236.723 v 0 c -8.233,-12.243 -4.984,-28.843 7.259,-37.076 l 55.42,-37.271 v 0 c 8.233,12.243 4.984,28.843 -7.259,37.076 z"
   id="path14" />
	<path
   style="fill:#599b13;stroke-width:1.94962"
   d="m 305.335,237.992 v 0 c 3.312,-9.818 13.955,-15.095 23.773,-11.783 l 44.446,14.988 v 0 c -3.312,9.818 -13.955,15.095 -23.773,11.783 z"
   id="path15" />
</g><path
         style="fill:#79d720;stroke-width:1.94962"
         d="m 243.774,256 c -20.52,0 -41.041,0 -61.561,0 8.887,-50.916 8.887,-102.986 0,-153.902 20.52,0 41.041,0 61.561,0 -8.887,50.916 -8.887,102.986 0,153.902 z"
         id="path27" /><g
         id="g29"
         style="stroke-width:1.94962">
	<path
   style="fill:#66b31b;stroke-width:1.94962"
   d="m 243.774,102.098 c -10.29,0 -20.58,0 -30.87,0 V 256 c 10.29,0 20.58,0 30.87,0 -8.887,-50.916 -8.887,-102.986 0,-153.902 z"
   id="path28" />
	<path
   style="fill:#66b31b;stroke-width:1.94962"
   d="m 243.774,409.902 c -20.52,0 -41.041,0 -61.561,0 8.887,-50.916 8.887,-102.986 0,-153.902 20.52,0 41.041,0 61.561,0 -8.887,50.916 -8.887,102.986 0,153.902 z"
   id="path29" />
</g><path
         style="fill:#599b13;stroke-width:1.94962"
         d="m 243.774,256 c -10.29,0 -20.58,0 -30.87,0 v 153.902 c 10.29,0 20.58,0 30.87,0 -8.887,-50.916 -8.887,-102.986 0,-153.902 z"
         id="path30" /><path
         style="fill:#79d720;stroke-width:1.94962"
         d="m 329.959,271.389 c -18.468,0 -36.936,0 -55.405,0 7.997,-45.823 7.997,-92.688 0,-138.511 18.468,0 36.936,0 55.405,0 -7.999,45.826 -7.999,92.688 0,138.511 z"
         id="path31" /><g
         id="g33"
         style="stroke-width:1.94962">
	<path
   style="fill:#66b31b;stroke-width:1.94962"
   d="m 329.959,132.879 c -9.521,0 -19.041,0 -28.562,0 V 271.39 c 9.521,0 19.041,0 28.562,0 -7.999,-45.824 -7.999,-92.686 0,-138.511 z"
   id="path32" />
	<path
   style="fill:#66b31b;stroke-width:1.94962"
   d="m 329.959,409.902 c -18.468,0 -36.936,0 -55.405,0 7.997,-45.823 7.997,-92.688 0,-138.511 18.468,0 36.936,0 55.405,0 -7.999,45.823 -7.999,92.686 0,138.511 z"
   id="path33" />
</g><path
         style="fill:#599b13;stroke-width:1.94962"
         d="m 329.959,271.389 c -9.521,0 -19.041,0 -28.562,0 V 409.9 c 9.521,0 19.041,0 28.562,0 -7.999,-45.823 -7.999,-92.686 0,-138.511 z"
         id="path34" /><g
         id="g34"
         style="stroke-width:1.94962">
</g><g
         id="g35"
         style="stroke-width:1.94962">
</g><g
         id="g36"
         style="stroke-width:1.94962">
</g><g
         id="g37"
         style="stroke-width:1.94962">
</g><g
         id="g38"
         style="stroke-width:1.94962">
</g><g
         id="g39"
         style="stroke-width:1.94962">
</g><g
         id="g40"
         style="stroke-width:1.94962">
</g><g
         id="g41"
         style="stroke-width:1.94962">
</g><g
         id="g42"
         style="stroke-width:1.94962">
</g><g
         id="g43"
         style="stroke-width:1.94962">
</g><g
         id="g44"
         style="stroke-width:1.94962">
</g><g
         id="g45"
         style="stroke-width:1.94962">
</g><g
         id="g46"
         style="stroke-width:1.94962">
</g><g
         id="g47"
         style="stroke-width:1.94962">
</g><g
         id="g48"
         style="stroke-width:1.94962">
</g></g><g
       id="g54"
       style="fill:#f5a97f;fill-opacity:1"
       transform="translate(0,-2.6458334)"><path
         d="m 100.51156,119.24984 c -0.0331,-0.13796 -0.1313,-0.35447 -0.12881,-0.56965 0.01,-0.81129 0.0469,-1.62237 0.0851,-2.43299 0.0112,-0.23809 0.0974,-0.46053 0.38071,-0.47655 0.29882,-0.017 0.37657,0.21844 0.40178,0.44902 0.0864,0.79129 0.17199,1.58332 0.22465,2.37727 0.006,0.22506 -0.0453,0.44797 -0.14777,0.6484 -0.14772,0.30244 -0.53869,0.32355 -0.81571,0.005 z"
         fill="#000000"
         id="path49"
         style="fill:#f5a97f;fill-opacity:1;stroke:none;stroke-width:0.137807;stroke-opacity:1" /><path
         d="m 102.75861,114.07377 c 0.25221,-0.21838 0.63402,-0.16011 0.68176,0.11185 0.11693,0.68755 0.18962,1.38193 0.21759,2.07875 0.0114,0.25109 -0.2205,0.42618 -0.4961,0.42802 -0.12241,0.005 -0.24235,-0.0357 -0.33701,-0.11364 -0.0946,-0.0778 -0.15728,-0.18782 -0.17616,-0.30895 -0.0473,-0.23365 -0.0675,-0.47197 -0.0603,-0.71038 0.005,-0.35973 0.028,-0.71993 0.0631,-1.07784 0.0229,-0.13898 0.0588,-0.27547 0.1071,-0.40781 z"
         fill="#000000"
         id="path50"
         style="fill:#f5a97f;fill-opacity:1;stroke:none;stroke-width:0.137807;stroke-opacity:1" /><path
         d="m 98.843215,114.20744 c 0.04797,0.1468 0.08374,0.29731 0.106806,0.44991 0.04391,0.67027 0.07956,1.34102 0.106805,2.01217 -0.0011,0.11958 -0.02058,0.23825 -0.05845,0.35154 -0.06974,0.24402 -0.232106,0.39217 -0.49354,0.36461 -0.270075,-0.0284 -0.392928,-0.22199 -0.377745,-0.47287 0.04943,-0.82159 0.108305,-1.64287 0.184959,-2.46228 0.0099,-0.10718 0.127268,-0.23035 0.227803,-0.29317 0.0604,-0.0377 0.184828,0.027 0.303356,0.0501 z"
         fill="#000000"
         id="path51"
         style="fill:#f5a97f;fill-opacity:1;stroke:none;stroke-width:0.137807;stroke-opacity:1" /><path
         d="m 112.59926,119.24984 c -0.0331,-0.13796 -0.1313,-0.35447 -0.12881,-0.56965 0.01,-0.81129 0.0469,-1.62237 0.0851,-2.43299 0.0112,-0.23809 0.0974,-0.46053 0.38071,-0.47655 0.29882,-0.017 0.37657,0.21844 0.40178,0.44902 0.0864,0.79129 0.17199,1.58332 0.22465,2.37727 0.006,0.22506 -0.0453,0.44797 -0.14777,0.6484 -0.14772,0.30244 -0.53869,0.32355 -0.81571,0.005 z"
         fill="#000000"
         id="path52"
         style="fill:#f5a97f;fill-opacity:1;stroke:none;stroke-width:0.137807;stroke-opacity:1" /><path
         d="m 114.84631,114.07377 c 0.25221,-0.21838 0.63402,-0.16011 0.68176,0.11185 0.11693,0.68755 0.18962,1.38193 0.21759,2.07875 0.0114,0.25109 -0.2205,0.42618 -0.4961,0.42802 -0.12241,0.005 -0.24235,-0.0357 -0.33701,-0.11364 -0.0946,-0.0778 -0.15728,-0.18782 -0.17616,-0.30895 -0.0473,-0.23365 -0.0675,-0.47197 -0.0603,-0.71038 0.005,-0.35973 0.028,-0.71993 0.0631,-1.07784 0.0229,-0.13898 0.0588,-0.27547 0.1071,-0.40781 z"
         fill="#000000"
         id="path53"
         style="fill:#f5a97f;fill-opacity:1;stroke:none;stroke-width:0.137807;stroke-opacity:1" /><path
         d="m 110.93091,114.20744 c 0.048,0.1468 0.0837,0.29731 0.10681,0.44991 0.0439,0.67027 0.0796,1.34102 0.1068,2.01217 -0.001,0.11958 -0.0206,0.23825 -0.0584,0.35154 -0.0697,0.24402 -0.2321,0.39217 -0.49354,0.36461 -0.27007,-0.0284 -0.39293,-0.22199 -0.37774,-0.47287 0.0494,-0.82159 0.1083,-1.64287 0.18496,-2.46228 0.01,-0.10718 0.12726,-0.23035 0.2278,-0.29317 0.0604,-0.0377 0.18483,0.027 0.30336,0.0501 z"
         fill="#000000"
         id="path54"
         style="fill:#f5a97f;fill-opacity:1;stroke:none;stroke-width:0.137807;stroke-opacity:1" /></g></g></svg>
