<?xml version="1.0" encoding="UTF-8" standalone="no"?>
<!-- Created with Inkscape (http://www.inkscape.org/) -->

<svg
   width="69.483612mm"
   height="69.483612mm"
   viewBox="0 0 69.483612 69.483612"
   version="1.1"
   id="svg1"
   xml:space="preserve"
   inkscape:version="1.4 (e7c3feb100, 2024-10-09)"
   sodipodi:docname="logo_perspective.svg"
   inkscape:export-filename="./logo_round.png"
   inkscape:export-xdpi="400"
   inkscape:export-ydpi="400"
   xmlns:inkscape="http://www.inkscape.org/namespaces/inkscape"
   xmlns:sodipodi="http://sodipodi.sourceforge.net/DTD/sodipodi-0.dtd"
   xmlns:xlink="http://www.w3.org/1999/xlink"
   xmlns="http://www.w3.org/2000/svg"
   xmlns:svg="http://www.w3.org/2000/svg"><sodipodi:namedview
     id="namedview1"
     pagecolor="#ffffff"
     bordercolor="#eeeeee"
     borderopacity="0"
     inkscape:showpageshadow="0"
     inkscape:pageopacity="0"
     inkscape:pagecheckerboard="0"
     inkscape:deskcolor="#d1d1d1"
     inkscape:document-units="mm"
     inkscape:zoom="2.4126249"
     inkscape:cx="145.48469"
     inkscape:cy="117.71411"
     inkscape:window-width="1902"
     inkscape:window-height="2160"
     inkscape:window-x="0"
     inkscape:window-y="0"
     inkscape:window-maximized="1"
     inkscape:current-layer="svg1" /><defs
     id="defs1"><linearGradient
       id="linearGradient1"
       inkscape:collect="always"><stop
         style="stop-color:#ffffff;stop-opacity:1;"
         offset="0"
         id="stop2" /><stop
         style="stop-color:#000000;stop-opacity:1;"
         offset="1"
         id="stop1" /></linearGradient><inkscape:path-effect
       effect="perspective-envelope"
       up_left_point="-55.96,0.7755"
       up_right_point="-18.2206,0.7755"
       down_left_point="-56.0629,61.959"
       down_right_point="-18.2206,61.959"
       id="path-effect1"
       is_visible="true"
       lpeversion="1"
       deform_type="perspective"
       horizontal_mirror="false"
       vertical_mirror="false"
       overflow_perspective="false" /><inkscape:path-effect
       effect="perspective-envelope"
       up_left_point="0,0"
       up_right_point="69.483609,0"
       down_left_point="0,69.483614"
       down_right_point="69.483609,69.483614"
       id="path-effect4"
       is_visible="true"
       lpeversion="1"
       deform_type="perspective"
       horizontal_mirror="false"
       vertical_mirror="false"
       overflow_perspective="false" /><inkscape:path-effect
       effect="perspective-envelope"
       up_left_point="0,0"
       up_right_point="69.58,0"
       down_left_point="0,69.483614"
       down_right_point="69.483609,69.483614"
       id="path-effect3"
       is_visible="true"
       lpeversion="1"
       deform_type="perspective"
       horizontal_mirror="false"
       vertical_mirror="false"
       overflow_perspective="false" /><inkscape:path-effect
       effect="fillet_chamfer"
       id="path-effect55"
       is_visible="true"
       lpeversion="1"
       nodesatellites_param="F,0,0,1,0,0,0,1 @ F,0,0,1,0,0,0,1 @ F,0,0,1,0,0,0,1 @ F,0,0,1,0,0,0,1 @ F,0,0,1,0,0,0,1 @ F,0,0,1,0,0,0,1 @ F,0,0,1,0,0,0,1 @ F,0,0,1,0,0,0,1 @ F,0,0,1,0,0,0,1 @ F,0,0,1,0,0,0,1 @ F,0,0,1,0,0,0,1 @ F,0,0,1,0,0,0,1 @ F,0,0,1,0,0,0,1 @ F,0,0,1,0,0,0,1"
       radius="0"
       unit="px"
       method="auto"
       mode="F"
       chamfer_steps="1"
       flexible="false"
       use_knot_distance="true"
       apply_no_radius="true"
       apply_with_radius="true"
       only_selected="false"
       hide_knots="false" /><filter
       style="color-interpolation-filters:sRGB"
       inkscape:label="Color Shift"
       id="filter136"
       x="0"
       y="0"
       width="1"
       height="1"><feColorMatrix
         type="hueRotate"
         values="346"
         result="color1"
         id="feColorMatrix135" /><feColorMatrix
         type="saturate"
         values="0.442691"
         result="color2"
         id="feColorMatrix136" /></filter><clipPath
       id="clipPath5820"
       clipPathUnits="userSpaceOnUse"><ellipse
         id="path5822"
         style="fill:none;stroke:#000000;stroke-width:0.07547;stroke-linecap:square;stroke-linejoin:round"
         transform="matrix(2.9758,2.8683,-2.6532,2.7526,-52.917,344.51)"
         cx="225.71428"
         cy="275.21933"
         rx="105.71429"
         ry="114.28571" /></clipPath><mask
       maskUnits="userSpaceOnUse"
       id="mask144"><path
         style="fill:#8087a2;fill-opacity:1;stroke-width:1.94962"
         d="M 182.213,390.40569 300.64694,508.07667 C 415.73196,496.05363 507.41425,391.20938 510.66692,282.09102 L 373.848,142.87978 l 2.61299,17.008 -46.50195,-46.50599 -20.39605,35.009 L 243.77398,82.601788 199.558,205.7458 160.47,166.31679 l 11.409,29.35 51.50999,51.281 -17.38196,61.26093 z"
         id="path145"
         sodipodi:nodetypes="cccccccccccccc" /></mask><mask
       maskUnits="userSpaceOnUse"
       id="mask11"><rect
         style="display:inline;fill:url(#linearGradient11);stroke-width:0.176389;stroke-linecap:square"
         id="rect11"
         width="69.484001"
         height="69.483612"
         x="0"
         y="0" /></mask><linearGradient
       inkscape:collect="always"
       xlink:href="#linearGradient1"
       id="linearGradient11"
       gradientUnits="userSpaceOnUse"
       x1="69.484001"
       y1="0.078881837"
       x2="19.622122"
       y2="29.623791" /></defs><g
     id="g4"
     mask="url(#mask11)"><path
       style="fill:#31394b;fill-opacity:1;stroke-width:0.176389;stroke-linecap:square"
       id="rect2"
       width="69.483612"
       height="69.483612"
       x="0"
       y="0"
       sodipodi:type="rect"
       d="m 31.641312,0 37.8423,0 -0.1029,61.1835 -37.7394,0 z" /><g
       id="g3"
       transform="rotate(180,6.710356,30.9795)"
       inkscape:path-effect="#path-effect1"><g
         inkscape:label="square"
         inkscape:groupmode="layer"
         id="g55"
         transform="translate(-72.0683,-57.855)"
         style="display:inline"><g
           inkscape:groupmode="layer"
           id="g2"
           inkscape:label="bg"><path
             id="rect55"
             clip-path="none"
             style="font-variation-settings:'wght' 585;fill:#31394b;stroke-width:0.499999"
             d="M 53.8477,110.81612 16.0054,119.814 16.1083,58.6305 53.8477,67.759631 Z"
             inkscape:original-d="m 53.8477,110.837 -37.8423,8.977 V 58.6305 l 37.8423,9.1503 z" /><path
             style="fill:#000000;fill-opacity:0.377788;stroke-width:0.264583"
             d="M 43.27354,76.615105 35.187332,63.245668 16.1083,58.6305 l -0.04573,27.187561 12.99288,15.537859 -0.219607,-1.807607 3.814511,4.503847 1.599494,-3.80038 4.845063,5.97146 3.031636,-12.203956 2.529447,3.543878 -0.724498,-2.683176 -3.410186,-4.768998 1.18041,-5.855148 z"
             id="path55"
             clip-path="none"
             inkscape:original-d="M 43.2532,76.6497 35.1403,63.2573 16.0054,58.6305 v 27.2287 l 13.0297,15.5318 -0.2218,-1.8058 3.8222,4.4988 1.5973,-3.796 4.8532,5.964 3.0271,-12.1921 2.5338,3.5418 -0.7264,-2.6815 -3.4168,-4.7676 1.1788,-5.8562 z"
             sodipodi:nodetypes="ccccccccccccccc" /></g><g
           id="g49"
           transform="matrix(0.13571,0,0,0.13571,72.0683,55.2092)"
           style="stroke-width:1.94962;filter:url(#filter136)"><a
             id="a2" /><g
             id="g27"
             style="stroke-width:1.94962">
	<path
   style="fill:#599b13;stroke-width:1.94962"
   d="m -221.35567,271.97289 v 0 c 5.95655,-5.88331 13.87958,-3.79189 17.74325,4.5093 l 16.99795,36.52152 v 0 c -5.50268,6.01776 -13.09788,4.50652 -16.92086,-3.5386 z"
   id="path13"
   inkscape:original-d="m -221.463,272.277 v 0 c 5.961,-5.882 13.895,-3.791 17.767,4.508 l 17.03,36.502 v 0 c -5.506,6.013 -13.109,4.503 -16.939,-3.536 z" />
	<path
   style="fill:#599b13;stroke-width:1.94962"
   d="m -279.53796,279.93634 v 0 c 4.6538,9.04472 2.81004,21.63653 -4.17963,28.32092 l -33.22742,31.78126 v 0 c -5.15532,-9.21445 -3.09411,-22.58934 4.53419,-29.65375 z"
   id="path14"
   inkscape:original-d="m -279.71,280.238 v 0 c 4.667,9.041 2.832,21.626 -4.159,28.306 l -33.226,31.753 v 0 c -5.17,-9.205 -3.122,-22.568 4.506,-29.627 z" />
	<path
   style="fill:#599b13;stroke-width:1.94962"
   d="m -276.22896,278.86897 v 0 c -1.88126,7.4709 -7.97015,11.73986 -13.66264,9.47079 l -26.80285,-10.67619 v 0 c 2.06704,-7.8062 8.61836,-12.07109 14.56629,-9.5916 z"
   id="path15"
   inkscape:original-d="m -276.398,279.171 v 0 c -1.877,7.468 -7.969,11.735 -13.67,9.467 l -26.845,-10.672 v 0 c 2.061,-7.804 8.616,-12.068 14.574,-9.589 z" />
</g><path
             style="fill:#79d720;stroke-width:1.94962"
             d="m -242.89639,264.77934 30.6681,-0.49008 c -4.29319,35.55556 -4.31123,71.86215 -0.0502,106.69449 l -30.69077,4.91829 c 4.61067,-37.29505 4.63415,-74.66738 0.0729,-111.1227 z"
             id="path27"
             inkscape:original-d="m -243.035,265.085 30.707,-0.49 c -4.281,35.542 -4.281,71.819 0,106.608 l -30.707,4.911 c 4.59,-37.247 4.59,-74.588 0,-111.029 z" /><g
             id="g29"
             style="stroke-width:1.94962">
	<path
   style="fill:#66b31b;stroke-width:1.94962"
   d="m -242.9693,375.90204 15.70193,-2.51577 0.0611,-108.85697 -15.69012,0.25004 c 4.56124,36.45532 4.53776,73.82765 -0.0729,111.1227 z"
   id="path28"
   inkscape:original-d="m -243.035,376.114 15.71,-2.512 V 264.835 l -15.71,0.25 c 4.59,36.441 4.59,73.782 0,111.029 z" />
	<path
   style="fill:#66b31b;stroke-width:1.94962"
   d="m -242.82359,153.80558 30.64547,3.9275 c -4.29011,34.89324 -4.30812,71.15284 -0.0502,106.55618 l -30.6681,0.49008 c 4.60714,-36.58524 4.63059,-73.90777 0.0728,-110.97376 z"
   id="path29"
   inkscape:original-d="m -243.035,154.056 30.707,3.932 c -4.281,34.925 -4.281,71.202 0,106.607 l -30.707,0.49 c 4.59,-36.587 4.59,-73.928 0,-111.029 z" />
</g><path
             style="fill:#599b13;stroke-width:1.94962"
             d="m -242.89639,264.77934 15.69012,-0.25004 0.061,-108.71405 -15.67834,-2.00967 c 4.55779,37.06599 4.53434,74.38852 -0.0728,110.97376 z"
             id="path30"
             inkscape:original-d="m -243.035,265.085 15.71,-0.25 V 156.068 l -15.71,-2.012 c 4.59,37.101 4.59,74.442 0,111.029 z" /><path
             style="fill:#79d720;stroke-width:1.94962"
             d="m -290.35643,253.75017 31.1612,-0.049 c -4.37667,33.96028 -4.4038,68.70016 -0.077,102.1089 l -31.18424,4.09731 c 4.68525,-35.54832 4.71792,-71.25948 0.10008,-106.15721 z"
             id="path31"
             inkscape:original-d="m -290.566,254.057 31.203,-0.049 c -4.356,33.952 -4.356,68.669 0,102.042 l -31.203,4.092 c 4.656,-35.509 4.656,-71.196 0,-106.085 z" /><g
             id="g33"
             style="stroke-width:1.94962">
	<path
   style="fill:#66b31b;stroke-width:1.94962"
   d="m -290.45651,359.90638 16.37834,-2.15181 0.0878,-104.0304 -16.36605,0.025 c 4.61784,34.89873 4.58517,70.60989 -0.10008,106.15721 z"
   id="path32"
   inkscape:original-d="m -290.566,360.141 16.388,-2.149 V 254.031 l -16.388,0.025 c 4.656,34.89 4.656,70.577 0,106.085 z" />
	<path
   style="fill:#66b31b;stroke-width:1.94962"
   d="m -290.25648,147.72691 31.1382,3.99014 c -4.37352,33.3539 -4.40061,68.05075 -0.0769,101.98312 l -31.1612,0.048 c 4.68168,-34.89702 4.7143,-70.56371 0.0999,-106.02126 z"
   id="path33"
   inkscape:original-d="m -290.566,147.97 31.203,3.995 c -4.356,33.387 -4.356,68.104 0,102.042 l -31.203,0.048 c 4.656,-34.903 4.656,-70.591 0,-106.085 z" />
</g><path
             style="fill:#599b13;stroke-width:1.94962"
             d="m -290.35643,253.75017 16.36605,-0.026 0.0877,-103.89984 -16.35378,-2.09543 c 4.61435,35.45556 4.58173,71.12225 -0.0999,106.02127 z"
             id="path34"
             inkscape:original-d="m -290.566,254.057 16.388,-0.026 V 150.07 l -16.388,-2.098 c 4.656,35.492 4.656,71.18 0,106.085 z" /><g
             id="g34"
             style="stroke-width:1.94962">
</g><g
             id="g35"
             style="stroke-width:1.94962">
</g><g
             id="g36"
             style="stroke-width:1.94962">
</g><g
             id="g37"
             style="stroke-width:1.94962">
</g><g
             id="g38"
             style="stroke-width:1.94962">
</g><g
             id="g39"
             style="stroke-width:1.94962">
</g><g
             id="g40"
             style="stroke-width:1.94962">
</g><g
             id="g41"
             style="stroke-width:1.94962">
</g><g
             id="g42"
             style="stroke-width:1.94962">
</g><g
             id="g43"
             style="stroke-width:1.94962">
</g><g
             id="g44"
             style="stroke-width:1.94962">
</g><g
             id="g45"
             style="stroke-width:1.94962">
</g><g
             id="g46"
             style="stroke-width:1.94962">
</g><g
             id="g47"
             style="stroke-width:1.94962">
</g><g
             id="g48"
             style="stroke-width:1.94962">
</g></g><g
           id="g54"
           style="fill:#f5a97f;fill-opacity:1"
           transform="translate(0,-2.64583)"><path
             d="m 41.468085,74.96784 c 0.01631,0.09985 0.06482,0.260312 0.06354,0.411589 -0.0053,0.570078 -0.02388,1.138188 -0.04305,1.706026 -0.0057,0.166882 -0.04848,0.317288 -0.18909,0.308399 -0.148696,-0.0094 -0.187321,-0.181365 -0.199802,-0.346149 -0.04289,-0.56584 -0.08528,-1.132649 -0.1113,-1.698432 -0.0029,-0.159764 0.02283,-0.313235 0.0741,-0.446335 0.07386,-0.201294 0.268334,-0.183122 0.405605,0.0646 z"
             fill="#000000"
             id="path49"
             style="fill:#f5a97f;fill-opacity:1;stroke:none;stroke-width:0.137807;stroke-opacity:1"
             inkscape:original-d="m 41.4419,74.9968 c 0.0164,0.1 0.0651,0.2607 0.0639,0.4122 -0.005,0.5709 -0.0233,1.1398 -0.0422,1.7084 -0.0056,0.1671 -0.0484,0.3177 -0.1893,0.3088 -0.149,-0.0094 -0.1878,-0.1816 -0.2004,-0.3466 -0.0433,-0.5666 -0.0861,-1.1342 -0.1125,-1.7008 -0.003,-0.16 0.0227,-0.3137 0.074,-0.447 0.0739,-0.2016 0.2688,-0.1834 0.4065,0.0647 z" /><path
             d="m 40.340662,78.464227 c -0.127934,0.138835 -0.322013,0.07181 -0.346244,-0.12565 -0.05937,-0.499488 -0.09619,-1.00115 -0.110148,-1.501592 -0.0057,-0.180357 0.112749,-0.287812 0.25295,-0.268038 0.06227,0.0057 0.123022,0.04384 0.170986,0.106555 0.04787,0.06262 0.07955,0.145604 0.08908,0.233187 0.02375,0.169776 0.03393,0.340852 0.03013,0.509933 -0.0026,0.255574 -0.01448,0.510256 -0.03229,0.762546 -0.01163,0.09738 -0.02986,0.192068 -0.05436,0.283059 z"
             fill="#000000"
             id="path50"
             style="fill:#f5a97f;fill-opacity:1;stroke:none;stroke-width:0.137807;stroke-opacity:1"
             inkscape:original-d="m 40.3142,78.4979 c -0.1281,0.139 -0.3226,0.0719 -0.347,-0.1258 -0.0598,-0.5001 -0.097,-1.0024 -0.1113,-1.5035 -0.0058,-0.1806 0.1128,-0.2882 0.2533,-0.2684 0.0624,0.0057 0.1233,0.0439 0.1714,0.1067 0.048,0.0627 0.0798,0.1458 0.0894,0.2335 0.0239,0.17 0.0342,0.3413 0.0305,0.5106 -0.0025,0.2559 -0.0142,0.5109 -0.0319,0.7635 -0.0116,0.0975 -0.0298,0.1923 -0.0543,0.2834 z" /><path
             d="m 42.285867,78.628033 c -0.0233,-0.105675 -0.04071,-0.213247 -0.05193,-0.321417 -0.02111,-0.471522 -0.03834,-0.943023 -0.05136,-1.414305 5.42e-4,-0.08359 0.01017,-0.165079 0.02867,-0.241476 0.03412,-0.165375 0.113301,-0.256649 0.24042,-0.217703 0.131011,0.04014 0.190518,0.184149 0.183046,0.357615 -0.02424,0.568551 -0.05306,1.136433 -0.09047,1.702245 -0.0048,0.07411 -0.06186,0.15232 -0.110679,0.189676 -0.02936,0.02237 -0.08991,-0.03076 -0.147684,-0.05464 z"
             fill="#000000"
             id="path51"
             style="fill:#f5a97f;fill-opacity:1;stroke:none;stroke-width:0.137807;stroke-opacity:1"
             inkscape:original-d="m 42.2633,78.6619 c -0.0234,-0.1058 -0.0409,-0.2135 -0.0522,-0.3218 -0.0214,-0.4721 -0.0389,-0.9442 -0.0522,-1.4161 5e-4,-0.0837 0.0101,-0.1653 0.0286,-0.2418 0.0341,-0.1656 0.1134,-0.257 0.2408,-0.218 0.1313,0.0402 0.191,0.1844 0.1836,0.3581 -0.024,0.5693 -0.0526,1.1379 -0.0898,1.7044 -0.0048,0.0742 -0.0619,0.1525 -0.1108,0.1899 -0.0294,0.0224 -0.0901,-0.0308 -0.148,-0.0547 z" /><path
             d="m 35.108729,73.899997 c 0.01837,0.106231 0.07311,0.27726 0.07158,0.437909 -0.0061,0.605471 -0.02725,1.208679 -0.04911,1.811719 -0.0063,0.177154 -0.05467,0.336535 -0.213335,0.325749 -0.167946,-0.01148 -0.211501,-0.194532 -0.225522,-0.369687 -0.04818,-0.60164 -0.09597,-1.204247 -0.125188,-1.805822 -0.0032,-0.169733 0.02583,-0.332475 0.08383,-0.47335 0.0833,-0.213056 0.302905,-0.191491 0.457747,0.07308 z"
             fill="#000000"
             id="path52"
             style="fill:#f5a97f;fill-opacity:1;stroke:none;stroke-width:0.137807;stroke-opacity:1"
             inkscape:original-d="m 35.0682,73.9273 c 0.0185,0.1064 0.0735,0.2777 0.0721,0.4386 -0.0056,0.6064 -0.0263,1.2105 -0.0477,1.8144 -0.0062,0.1774 -0.0545,0.337 -0.2135,0.3262 -0.1683,-0.0115 -0.2121,-0.1948 -0.2263,-0.3702 -0.0488,-0.6025 -0.0972,-1.206 -0.127,-1.8085 -0.0034,-0.17 0.0256,-0.333 0.0836,-0.4741 0.0833,-0.2134 0.3034,-0.1918 0.4588,0.0732 z" /><path
             d="m 33.834676,77.603985 c -0.144543,0.146415 -0.364039,0.07351 -0.391294,-0.136725 -0.06698,-0.531607 -0.108407,-1.065285 -0.124088,-1.59744 -0.0064,-0.191925 0.127414,-0.304962 0.286062,-0.282594 0.07025,0.0068 0.138967,0.04793 0.193194,0.115134 0.05403,0.0669 0.08977,0.155477 0.100469,0.248745 0.02688,0.180645 0.0383,0.362592 0.03405,0.542245 -0.0031,0.271631 -0.01655,0.542171 -0.03685,0.810221 -0.01317,0.103366 -0.03381,0.203937 -0.06144,0.300414 z"
             fill="#000000"
             id="path53"
             style="fill:#f5a97f;fill-opacity:1;stroke:none;stroke-width:0.137807;stroke-opacity:1"
             inkscape:original-d="M 33.7947,77.6366 C 33.65,77.7832 33.43,77.7102 33.4025,77.4997 33.3349,76.9674 33.2929,76.433 33.2767,75.9001 c -0.0066,-0.1922 0.1274,-0.3054 0.2864,-0.283 0.0704,0.0068 0.1393,0.048 0.1937,0.1153 0.0542,0.067 0.0901,0.1557 0.1009,0.2491 0.0271,0.1809 0.0387,0.3631 0.0346,0.543 -0.0029,0.272 -0.0161,0.5429 -0.0362,0.8113 -0.0131,0.1035 -0.0337,0.2042 -0.0613,0.3008 z" /><path
             d="m 36.030139,77.795144 c -0.02626,-0.112458 -0.04583,-0.226813 -0.05841,-0.341767 -0.02375,-0.500846 -0.04301,-1.00167 -0.05758,-1.502173 5.7e-4,-0.08867 0.01142,-0.17515 0.03234,-0.256134 0.03846,-0.175146 0.127749,-0.271206 0.271115,-0.228569 0.147657,0.04384 0.214597,0.197314 0.206172,0.38145 -0.02741,0.603157 -0.06012,1.205746 -0.1024,1.806071 -0.0056,0.0786 -0.06979,0.161197 -0.124809,0.200348 -0.03315,0.02357 -0.101372,-0.03346 -0.166422,-0.05923 z"
             fill="#000000"
             id="path54"
             style="fill:#f5a97f;fill-opacity:1;stroke:none;stroke-width:0.137807;stroke-opacity:1"
             inkscape:original-d="m 35.9947,77.828 c -0.0264,-0.1126 -0.0461,-0.2271 -0.0588,-0.3422 -0.0242,-0.5015 -0.0439,-1.003 -0.0589,-1.5042 5e-4,-0.0888 0.0113,-0.1754 0.0322,-0.2565 0.0384,-0.1754 0.1278,-0.2716 0.2715,-0.2289 0.148,0.0439 0.2152,0.1976 0.2069,0.382 -0.027,0.604 -0.0593,1.2074 -0.1012,1.8085 -0.0055,0.0787 -0.0698,0.1614 -0.1249,0.2006 -0.0332,0.0236 -0.1016,-0.0335 -0.1668,-0.0593 z" /></g></g></g><path
       style="display:inline;fill:#1f242f;fill-opacity:1;stroke-width:0.176389;stroke-linecap:square"
       d="M 58.433983,69.483612 50.30168,56.568332 h 19.181932 v 12.91528 z"
       id="path2"
       sodipodi:nodetypes="ccccc" /></g></svg>
